<?xml version="1.0" encoding="UTF-8"?>
<svg version="1.1" viewBox="0 0 1500 1700" xmlns="http://www.w3.org/2000/svg">
<path transform="translate(741,0)" d="m0 0 6 2 26 15 24 14 182 105 24 14 182 105 24 14 28 16 24 14 156 90 24 14 26 15 10 6 1 1v851l-13 8-130 75-24 14-156 90-24 14-28 16-24 14-156 90-24 14-156 90-6-2-24-14-130-75-24-14-182-105-24-14-28-16-24-14-156-90-24-14-104-60-11-7v-851l9-6 25-14 17-10 104-60 24-14 182-105 24-14 182-105 24-14 28-16 24-14 78-45zm-1 105-78 45-24 14-182 105-24 14-28 16-24 14-156 90-24 14-104 60v746l9 6 130 75 24 14 182 105 24 14 182 105 24 14 28 16 24 14 17 10 5-1 25-14 24-14 156-90 24-14 28-16 24-14 156-90 24-14 156-90 24-14 2-2v-746l-28-16-78-45-24-14-182-105-24-14-28-16-24-14-156-90-24-14-52-30-24-14z" fill="#fcfcfc"/>
<path transform="translate(715,371)" d="m0 0h57l31 2 33 4 36 7 25 7 20 7 19 8 20 10 19 12 14 11 12 11 17 17 9 11 13 17 13 21 12 25 7 21 5 22 2 15v20h-150l-6-29-7-20-8-15-8-10-7-7-13-9-19-10-27-9-23-5-30-4-13-1h-55l-21 3-22 6-21 9-16 10-10 8-12 11-11 13-9 14-8 17-4 15-1 6v26l4 15 7 13 8 10 10 9 16 9 19 9 30 11 35 11 44 12 53 13 64 16 53 15 36 12 24 10 25 13 15 10 14 11 19 19 13 17 9 14 10 19 9 25 5 23 2 19v27l-3 24-6 25-8 21-8 16-9 16-12 17-13 16-12 13-15 15-14 11-17 12-15 9-17 9-24 10-30 10-24 6-26 5-30 4-24 2-21 1h-50l-34-2-34-4-33-6-27-7-27-9-21-9-22-11-19-12-17-13-14-12-13-13-18-22-12-18-10-18-9-20-8-24-6-27-3-23-1-28h151l4 26 5 20 7 19 7 14 10 14 11 11 13 10 13 8 16 8 15 6 25 7 24 4 21 2h55l35-3 30-5 26-7 19-8 15-8 14-11 7-7 10-14 7-14 5-16 2-13v-21l-3-12-8-16-10-14-10-11-7-8-14-11-15-9-17-8-30-10-33-8-56-13-64-16-49-14-48-15-22-8-20-9-17-9-15-10-10-8-10-9-8-8-7-8-12-15-14-21-10-19-8-21-5-21-2-15v-32l2-19 5-25 5-17 10-24 11-20 12-17 9-11 11-12 13-13 11-9 13-10 15-10 18-10 25-12 25-9 24-7 36-7 24-3z" fill="#fcfcfc"/>
<path transform="translate(1235,453)" d="m0 0 5 1 17 10 52 30 19 11 1 1v678l-10 7-24 15-22 14-19 12-17 11-2-1z" fill="#fcfcfc"/>
<path transform="translate(253,453)" d="m0 0h1v791l-12-6-24-14-56-32-2-2v-678l21-13 25-16 44-28z" fill="#fcfcfc"/>
</svg>
